<?xml version="1.0" encoding="UTF-8" standalone="no"?>
<!-- Generator: Adobe Illustrator 19.0.0, SVG Export Plug-In . SVG Version: 6.00 Build 0)  -->

<svg
   xmlns:dc="http://purl.org/dc/elements/1.1/"
   xmlns:cc="http://creativecommons.org/ns#"
   xmlns:rdf="http://www.w3.org/1999/02/22-rdf-syntax-ns#"
   xmlns:svg="http://www.w3.org/2000/svg"
   xmlns="http://www.w3.org/2000/svg"
   xmlns:sodipodi="http://sodipodi.sourceforge.net/DTD/sodipodi-0.dtd"
   xmlns:inkscape="http://www.inkscape.org/namespaces/inkscape"
   version="1.1"
   id="Layer_1"
   x="0px"
   y="0px"
   viewBox="0 0 1154.9664 501.55103"
   xml:space="preserve"
   inkscape:version="0.91 r13725"
   sodipodi:docname="online-shop-WA.svg"
   width="1154.9664"
   height="501.55103"><metadata
     id="metadata129"><rdf:RDF><cc:Work
         rdf:about=""><dc:format>image/svg+xml</dc:format><dc:type
           rdf:resource="http://purl.org/dc/dcmitype/StillImage" /><dc:title></dc:title></cc:Work></rdf:RDF></metadata><defs
     id="defs127" /><sodipodi:namedview
     pagecolor="#ffffff"
     bordercolor="#666666"
     borderopacity="1"
     objecttolerance="10"
     gridtolerance="10"
     guidetolerance="10"
     inkscape:pageopacity="0"
     inkscape:pageshadow="2"
     inkscape:window-width="1366"
     inkscape:window-height="705"
     id="namedview125"
     showgrid="false"
     fit-margin-top="0"
     fit-margin-left="0"
     fit-margin-right="0"
     fit-margin-bottom="0"
     inkscape:zoom="0.47054039"
     inkscape:cx="330.59911"
     inkscape:cy="250.77546"
     inkscape:window-x="0"
     inkscape:window-y="30"
     inkscape:window-maximized="1"
     inkscape:current-layer="Layer_1" /><path
     style="fill:#40596b"
     d="m 480.653,78.367 -459.755,0 C 9.404,78.367 0,87.771 0,99.265 l 0,311.38 c 0,11.494 9.404,20.898 20.898,20.898 l 459.755,0 c 11.494,0 20.898,-9.404 20.898,-20.898 l 0,-311.38 c 0,-11.494 -9.404,-20.898 -20.898,-20.898 z"
     id="path3"
     inkscape:connector-curvature="0" /><rect
     x="31.347"
     y="109.714"
     style="fill:#ffffff"
     width="438.85699"
     height="289.43701"
     id="rect5" /><rect
     x="154.645"
     y="431.543"
     style="fill:#cdd6e0"
     width="191.216"
     height="56.424999"
     id="rect7" /><rect
     x="97.176003"
     y="487.96701"
     style="fill:#f2f2f2"
     width="307.20001"
     height="13.584"
     id="rect9" /><rect
     x="154.645"
     y="431.543"
     style="fill:#acb3ba"
     width="191.216"
     height="15.673"
     id="rect11" /><path
     style="fill:#f2f2f2"
     d="m 432.588,117.029 0,265.404 c 0,9.404 -7.314,16.718 -16.718,16.718 l -331.233,0 c -9.404,0 -16.718,-7.314 -16.718,-16.718 l 0,-265.404 364.669,0 z"
     id="path13"
     inkscape:connector-curvature="0" /><g
     id="g15"><path
       style="fill:#ffffff"
       d="m 252.865,191.216 0,39.706 c -1.045,0 -1.045,0 -2.09,0 -1.045,0 -1.045,0 -2.09,0 l 0,-39.706 4.18,0 z"
       id="path17"
       inkscape:connector-curvature="0" /><path
       style="fill:#ffffff"
       d="m 252.865,343.771 0,39.706 -4.18,0 0,-39.706 c 1.045,0 1.045,0 2.09,0 1.045,0 1.045,0 2.09,0 z"
       id="path19"
       inkscape:connector-curvature="0" /><path
       style="fill:#ffffff"
       d="m 319.739,220.473 -28.212,28.212 c -1.045,-1.045 -2.09,-2.09 -3.135,-3.135 l 28.212,-28.212 3.135,3.135 z"
       id="path21"
       inkscape:connector-curvature="0" /><path
       style="fill:#ffffff"
       d="m 212.114,329.143 -28.212,28.212 -3.135,-3.135 28.212,-28.212 c 1.045,1.045 2.09,2.09 3.135,3.135 z"
       id="path23"
       inkscape:connector-curvature="0" /><path
       style="fill:#ffffff"
       d="m 346.906,285.257 0,4.18 -38.661,0 c 0,-1.045 0,-1.045 0,-2.09 0,-1.045 0,-1.045 0,-2.09 l 38.661,0 0,0 z"
       id="path25"
       inkscape:connector-curvature="0" /><path
       style="fill:#ffffff"
       d="m 194.351,287.347 c 0,1.045 0,1.045 0,2.09 l -38.661,0 0,-4.18 38.661,0 c 0,0 0,1.045 0,2.09 z"
       id="path27"
       inkscape:connector-curvature="0" /><path
       style="fill:#ffffff"
       d="m 319.739,353.176 -3.135,3.135 -27.167,-27.167 c 1.045,-1.045 2.09,-2.09 3.135,-3.135 l 27.167,27.167 z"
       id="path29"
       inkscape:connector-curvature="0" /><path
       style="fill:#ffffff"
       d="m 212.114,245.551 c -1.045,1.045 -2.09,2.09 -3.135,3.135 l -28.212,-28.212 3.135,-3.135 28.212,28.212 z"
       id="path31"
       inkscape:connector-curvature="0" /><path
       style="fill:#ffffff"
       d="m 230.922,234.057 c -1.045,0 -2.09,1.045 -4.18,2.09 l -9.404,-21.943 4.18,-2.09 9.404,21.943 z"
       id="path33"
       inkscape:connector-curvature="0" /><path
       style="fill:#ffffff"
       d="m 283.167,361.535 -4.18,2.09 -9.404,-21.943 c 1.045,0 2.09,-1.045 4.18,-2.09 l 9.404,21.943 z"
       id="path35"
       inkscape:connector-curvature="0" /><path
       style="fill:#ffffff"
       d="m 199.576,263.314 c -1.045,1.045 -1.045,2.09 -2.09,4.18 l -21.943,-9.404 2.09,-4.18 21.943,9.404 z"
       id="path37"
       inkscape:connector-curvature="0" /><path
       style="fill:#ffffff"
       d="m 326.008,316.604 -2.09,4.18 -21.943,-9.404 c 1.045,-1.045 1.045,-2.09 2.09,-4.18 l 21.943,9.404 z"
       id="path39"
       inkscape:connector-curvature="0" /><path
       style="fill:#ffffff"
       d="m 199.576,310.335 -21.943,9.404 -2.09,-4.18 21.943,-9.404 c 1.045,2.09 1.045,3.135 2.09,4.18 z"
       id="path41"
       inkscape:connector-curvature="0" /><path
       style="fill:#ffffff"
       d="m 326.008,258.09 -21.943,9.404 c 0,-1.045 -1.045,-2.09 -2.09,-4.18 l 21.943,-9.404 2.09,4.18 z"
       id="path43"
       inkscape:connector-curvature="0" /><path
       style="fill:#ffffff"
       d="m 230.922,340.637 -9.404,21.943 -4.18,-2.09 9.404,-21.943 c 2.091,1.045 3.136,1.045 4.18,2.09 z"
       id="path45"
       inkscape:connector-curvature="0" /><path
       style="fill:#ffffff"
       d="m 283.167,213.159 -8.359,21.943 c -1.045,-1.045 -2.09,-1.045 -4.18,-2.09 l 9.404,-21.943 3.135,2.09 z"
       id="path47"
       inkscape:connector-curvature="0" /></g><path
     style="fill:#ffd15c"
     d="M 411.69,0 89.861,0 C 78.367,0 68.963,9.404 68.963,20.898 l 0,54.335 364.669,0 0,-54.335 C 432.588,9.404 423.184,0 411.69,0 Z"
     id="path49"
     inkscape:connector-curvature="0" /><polygon
     style="fill:#40596b"
     points="378.253,311.38 394.971,293.616 324.963,273.763 344.816,344.816 362.58,327.053 379.298,344.816 394.971,329.143 "
     id="polygon51" /><circle
     style="fill:#f8b64c"
     cx="205.845"
     cy="37.616001"
     id="ellipse53"
     r="12.539" /><circle
     style="fill:#ff7058"
     cx="157.78"
     cy="37.616001"
     id="ellipse55"
     r="12.539" /><circle
     style="fill:#f8b64c"
     cx="109.714"
     cy="37.616001"
     id="ellipse57"
     r="12.539" /><path
     style="fill:#e4eaef"
     d="m 432.588,125.388 0,49.11 c -6.269,5.224 -14.629,7.314 -22.988,7.314 -21.943,0 -39.706,-17.763 -39.706,-39.706 0,21.943 -17.763,39.706 -39.706,39.706 -21.943,0 -39.706,-17.763 -39.706,-39.706 0,21.943 -17.763,39.706 -39.706,39.706 -21.943,0 -39.706,-17.763 -39.706,-39.706 0,21.943 -17.763,39.706 -39.706,39.706 -21.943,0 -39.706,-17.763 -39.706,-39.706 0,21.943 -17.763,39.706 -39.706,39.706 -8.359,0 -16.718,-3.135 -22.988,-7.314 l 0,-49.11 c -0.001,0 363.624,0 363.624,0 z"
     id="path59"
     inkscape:connector-curvature="0" /><polygon
     style="fill:#ff7058"
     points="131.657,117.029 52.245,117.029 68.963,75.233 141.061,75.233 "
     id="polygon61" /><polygon
     style="fill:#cdd6e0"
     points="211.069,117.029 131.657,117.029 141.061,75.233 214.204,75.233 "
     id="polygon63" /><polygon
     style="fill:#ff7058"
     points="290.482,117.029 211.069,117.029 214.204,75.233 287.347,75.233 "
     id="polygon65" /><polygon
     style="fill:#cdd6e0"
     points="369.894,117.029 290.482,117.029 287.347,75.233 360.49,75.233 "
     id="polygon67" /><polygon
     style="fill:#ff7058"
     points="449.306,117.029 369.894,117.029 360.49,75.233 432.588,75.233 "
     id="polygon69" /><g
     id="g71"><path
       style="fill:#acb3ba"
       d="m 131.657,134.792 c 0,21.943 17.763,39.706 39.706,39.706 21.943,0 39.706,-17.763 39.706,-39.706 l 0,-17.763 -79.412,0 0,17.763 0,0 z"
       id="path73"
       inkscape:connector-curvature="0" /><path
       style="fill:#acb3ba"
       d="m 290.482,117.029 0,17.763 c 0,21.943 17.763,39.706 39.706,39.706 21.943,0 39.706,-17.763 39.706,-39.706 l 0,-17.763 c 0,0 -79.412,0 -79.412,0 z"
       id="path75"
       inkscape:connector-curvature="0" /></g><g
     id="g77"><path
       style="fill:#f1543f"
       d="m 52.245,134.792 c 0,21.943 17.763,39.706 39.706,39.706 21.943,0 39.706,-17.763 39.706,-39.706 l 0,-17.763 -79.412,0 0,17.763 z"
       id="path79"
       inkscape:connector-curvature="0" /><path
       style="fill:#f1543f"
       d="m 211.069,134.792 c 0,21.943 17.763,39.706 39.706,39.706 21.943,0 39.706,-17.763 39.706,-39.706 l 0,-17.763 -79.412,0 0,17.763 0,0 z"
       id="path81"
       inkscape:connector-curvature="0" /><path
       style="fill:#f1543f"
       d="m 369.894,117.029 0,17.763 c 0,21.943 17.763,39.706 39.706,39.706 21.943,0 39.706,-17.763 39.706,-39.706 l 0,-17.763 c 0,0 -79.412,0 -79.412,0 z"
       id="path83"
       inkscape:connector-curvature="0" /></g><ellipse
     style="fill:#ff7058"
     cx="250.776"
     cy="287.34698"
     rx="61.648998"
     ry="62.694"
     id="ellipse85" /><g
     id="g87"><path
       style="fill:#ffffff"
       d="m 240.327,306.155 -2.09,-7.314 48.065,0 0,-36.571 -57.469,0 -3.135,-13.584 -16.718,0 0,6.269 12.539,0 14.629,57.469 52.245,0 0,-6.269 -48.066,0 z m 39.706,-38.661 0,24.033 -42.841,0 -6.269,-24.033 49.11,0 z"
       id="path89"
       inkscape:connector-curvature="0" /><circle
       style="fill:#ffffff"
       cx="249.731"
       cy="323.918"
       id="ellipse91"
       r="7.3140001" /><circle
       style="fill:#ffffff"
       cx="276.89801"
       cy="323.918"
       id="ellipse93"
       r="7.3140001" /></g><g
     id="g95" /><g
     id="g97" /><g
     id="g99" /><g
     id="g101" /><g
     id="g103" /><g
     id="g105" /><g
     id="g107" /><g
     id="g109" /><g
     id="g111" /><g
     id="g113" /><g
     id="g115" /><g
     id="g117" /><g
     id="g119" /><g
     id="g121" /><g
     id="g123" /><g
     id="g3500"
     transform="matrix(0.85472156,0,0,0.85472156,717.34896,35.154601)"><path
       id="path3458"
       d="M 0,512 35.31,384 C 12.359,344.276 0,300.138 0,254.234 0,114.759 114.759,0 255.117,0 395.475,0 512,114.759 512,254.234 512,393.709 395.476,512 255.117,512 210.979,512 168.607,497.876 130.648,476.69 L 0,512 Z"
       style="fill:#ededed"
       inkscape:connector-curvature="0" /><path
       id="path3460"
       d="m 137.71,430.786 7.945,4.414 c 32.662,20.303 70.621,32.662 110.345,32.662 115.641,0 211.862,-96.221 211.862,-213.628 0,-117.407 -96.221,-210.096 -212.745,-210.096 -116.524,0 -210.979,93.572 -210.979,210.096 0,40.607 11.476,80.331 32.662,113.876 l 5.297,7.945 -20.303,74.152 75.916,-19.421 z"
       style="fill:#55cd6c"
       inkscape:connector-curvature="0" /><path
       id="path3462"
       d="m 187.145,135.945 -16.772,-0.883 c -5.297,0 -10.593,1.766 -14.124,5.297 -7.945,7.062 -21.186,20.303 -24.717,37.959 -6.179,26.483 3.531,58.262 26.483,90.041 22.952,31.779 67.09,82.979 144.772,105.048 24.717,7.062 44.138,2.648 60.028,-7.062 12.359,-7.945 20.303,-20.303 22.952,-33.545 l 2.648,-12.359 c 0.883,-3.531 -0.883,-7.945 -4.414,-9.71 l -55.614,-25.6 c -3.531,-1.766 -7.945,-0.883 -10.593,2.648 l -22.069,28.248 c -1.766,1.766 -4.414,2.648 -7.062,1.766 -15.007,-5.297 -65.324,-26.483 -92.69,-79.448 -0.883,-2.648 -0.883,-5.297 0.883,-7.062 l 21.186,-23.834 c 1.766,-2.648 2.648,-6.179 1.766,-8.828 l -25.6,-57.379 c -0.884,-2.649 -3.532,-5.297 -7.063,-5.297"
       style="fill:#fefefe"
       inkscape:connector-curvature="0" /><g
       id="g3464" /><g
       id="g3466" /><g
       id="g3468" /><g
       id="g3470" /><g
       id="g3472" /><g
       id="g3474" /><g
       id="g3476" /><g
       id="g3478" /><g
       id="g3480" /><g
       id="g3482" /><g
       id="g3484" /><g
       id="g3486" /><g
       id="g3488" /><g
       id="g3490" /><g
       id="g3492" /></g><polygon
     transform="matrix(-0.69605577,0.71798772,-0.71798772,-0.69605577,1080.4349,220.35764)"
     style="fill:#40596b"
     points="379.298,344.816 394.971,329.143 378.253,311.38 394.971,293.616 324.963,273.763 344.816,344.816 362.58,327.053 "
     id="polygon51-6" /></svg>